<?xml version="1.0" encoding="utf-8"?><!-- Uploaded to: SVG Repo, www.svgrepo.com, Generator: SVG Repo Mixer Tools -->
<svg fill="#000000" width="800px" height="800px" viewBox="0 0 24 24" id="reward" data-name="Flat Color" xmlns="http://www.w3.org/2000/svg" class="icon flat-color"><path id="secondary" d="M21.85,19.53A1.05,1.05,0,0,1,21,20L18.4,20,16.72,21.7A1,1,0,0,1,16,22h-.15a1,1,0,0,1-.74-.54l-2.57-5.13A1,1,0,0,1,13,15l4.75-2.47a1,1,0,0,1,1,0,.94.94,0,0,1,.41.49l2.77,5.5A1,1,0,0,1,21.85,19.53Zm-19.7,0A1.05,1.05,0,0,0,3,20L5.6,20,7.28,21.7A1,1,0,0,0,8,22h.15a1,1,0,0,0,.74-.54l2.57-5.13A1,1,0,0,0,11,15L6.27,12.52a1,1,0,0,0-1,0,.94.94,0,0,0-.41.49l-2.77,5.5A1,1,0,0,0,2.15,19.53Z" style="fill: rgb(44, 169, 188);"></path><path id="primary" d="M19.65,8.2a4.31,4.31,0,0,1-.31-.59,3.65,3.65,0,0,1-.1-.69,3.55,3.55,0,0,0-.54-1.79,3.51,3.51,0,0,0-1.55-1.07,2.86,2.86,0,0,1-.61-.31,3.59,3.59,0,0,1-.48-.48,3.52,3.52,0,0,0-1.5-1.15,3.47,3.47,0,0,0-1.85,0,3.1,3.1,0,0,1-1.42,0,3.47,3.47,0,0,0-1.85,0,3.52,3.52,0,0,0-1.5,1.15,3.08,3.08,0,0,1-.48.48,2.86,2.86,0,0,1-.61.31A3.51,3.51,0,0,0,5.3,5.13a3.55,3.55,0,0,0-.54,1.79,3.65,3.65,0,0,1-.1.69,4.31,4.31,0,0,1-.31.59A3.48,3.48,0,0,0,3.72,10a3.48,3.48,0,0,0,.63,1.8,4.31,4.31,0,0,1,.31.59,3.65,3.65,0,0,1,.1.69,3.55,3.55,0,0,0,.54,1.79,3.51,3.51,0,0,0,1.55,1.07,2.86,2.86,0,0,1,.61.31,3.59,3.59,0,0,1,.48.48,3.52,3.52,0,0,0,1.5,1.15,3.47,3.47,0,0,0,1.85-.05,3.1,3.1,0,0,1,1.42,0,4.71,4.71,0,0,0,1.11.16,2.42,2.42,0,0,0,.74-.11,3.52,3.52,0,0,0,1.5-1.15,3.08,3.08,0,0,1,.48-.48,2.86,2.86,0,0,1,.61-.31,3.51,3.51,0,0,0,1.55-1.07,3.55,3.55,0,0,0,.54-1.79,3.65,3.65,0,0,1,.1-.69,4.31,4.31,0,0,1,.31-.59,3.48,3.48,0,0,0,.63-1.8A3.48,3.48,0,0,0,19.65,8.2Z" style="fill: rgb(0, 0, 0);"></path><circle id="secondary-2" data-name="secondary" cx="12" cy="10" r="4" style="fill: rgb(44, 169, 188);"></circle></svg>